<svg width="128" height="128" id="Layer_1" style="enable-background:new 0 0 64 64" version="1.1" xml:space="preserve" xmlns="http://www.w3.org/2000/svg"><style>.st23{fill:none;stroke:#fff;stroke-width:2;stroke-linecap:round;stroke-miterlimit:10}</style><linearGradient gradientUnits="userSpaceOnUse" id="SVGID_1_" x1="11.992" x2="52.248" y1="11.978" y2="52.235"><stop offset="0" style="stop-color:#4afab5"/><stop offset="1" style="stop-color:#107a96"/></linearGradient><path d="M57.2 60.5c-16.5 2-33.3 2-50.4 0-1.7-.2-3.1-1.6-3.3-3.3-2-16.8-2-33.6 0-50.4.2-1.7 1.6-3.1 3.3-3.3 16.8-2 33.7-2 50.5 0 1.7.2 3 1.5 3.3 3.2 2 16.5 2 33.3 0 50.5-.3 1.7-1.7 3.1-3.4 3.3z" style="fill:url(#SVGID_1_)"/><path d="M42.3 40H38v-4.3c0-.9.3-1.7 1-2.3L49.3 23c1.6-1.6 4.1-1.6 5.7 0 1.6 1.6 1.6 4.1 0 5.7L44.6 39c-.6.7-1.4 1-2.3 1z" style="opacity:.6;fill:#fff"/><path d="M44.6 39c-.6.6-1.4 1-2.3 1H38v-4.3c0-.9.3-1.7 1-2.3l9.7-9.7c-8.1-1.2-16.1-1.1-24.2.1-.9.1-1.6.8-1.7 1.7-1 8.1-1 16.4 0 25 .1.9.8 1.7 1.8 1.8 8.3 1 16.6 1 24.9 0 .9-.1 1.6-.8 1.8-1.7.8-6.2 1-12.4.6-18.7L44.6 39z" style="fill:#fff"/><g style="opacity:.3"><path class="st23" d="M13 13h31M13 20h31M13 27h27M13 34h23M13 41h23"/></g></svg>